<svg xmlns="http://www.w3.org/2000/svg" width="200mm" height="200mm" viewBox="0 0 200 200"><g transform="rotate(10 7.105 310.274)"><rect width="100" height="140" x="50" y="30" rx="5" ry="5" style="fill:#29adff;stroke:#1d2b53;stroke-width:5;stroke-dasharray:none"/><circle cx="100" cy="100" r="25" style="display:inline;fill:#ff004d;stroke:#000;stroke-width:0;stroke-dasharray:none"/><path d="M124.999 100.228A25 25 0 0 1 99.772 125 25 25 0 0 1 75 99.772l25 .228Z" style="display:inline;fill:#fff1e8;stroke:#000;stroke-width:0;stroke-dasharray:none"/><path d="M65.352 42.598h10v14h-10zm15.081 0h10v14h-10zm15.082 0h10v14h-10zm15.081 0h10v14h-10zm15.081 0h10v14h-10z" style="fill:#ffec27;stroke:#1d2b53;stroke-width:0;stroke-dasharray:none" transform="translate(-.515 2.402)"/><path d="M65.352 42.598h10v14h-10zm15.081 0h10v14h-10zm15.082 0h10v14h-10zm15.081 0h10v14h-10zm15.081 0h10v14h-10z" style="fill:#ffec27;stroke:#1d2b53;stroke-width:0;stroke-dasharray:none" transform="translate(-.515 98.402)"/></g><g style="display:inline" transform="rotate(-10 192.498 314.818)"><rect width="100" height="140" x="50" y="30" rx="5" ry="5" style="fill:#29adff;stroke:#1d2b53;stroke-width:5;stroke-dasharray:none"/><circle cx="100" cy="100" r="25" style="display:inline;fill:#ff004d;stroke:#000;stroke-width:0;stroke-dasharray:none"/><path d="M124.999 100.228A25 25 0 0 1 99.772 125 25 25 0 0 1 75 99.772l25 .228Z" style="display:inline;fill:#fff1e8;stroke:#000;stroke-width:0;stroke-dasharray:none"/><path d="M65.352 42.598h10v14h-10zm15.081 0h10v14h-10zm15.082 0h10v14h-10zm15.081 0h10v14h-10zm15.081 0h10v14h-10z" style="fill:#ffec27;stroke:#1d2b53;stroke-width:0;stroke-dasharray:none" transform="translate(-.515 2.402)"/><path d="M65.352 42.598h10v14h-10zm15.081 0h10v14h-10zm15.082 0h10v14h-10zm15.081 0h10v14h-10zm15.081 0h10v14h-10z" style="fill:#ffec27;stroke:#1d2b53;stroke-width:0;stroke-dasharray:none" transform="translate(-.515 98.402)"/></g><g style="display:inline" transform="translate(0 -26.5)"><rect width="100" height="140" x="50" y="30" rx="5" ry="5" style="fill:#29adff;stroke:#ffec27;stroke-width:5;stroke-dasharray:none"/><path d="m121.911 127.337-92.64-.053 46.367-80.202Z" style="fill:#fff1e8;stroke:#ffec27;stroke-width:0;stroke-dasharray:none" transform="matrix(.64767 0 0 .74761 51.042 52.301)"/><circle cx="100" cy="125" r="25" style="fill:#1d2b53;stroke:#ffec27;stroke-width:0;stroke-dasharray:none"/><path d="M54.922 32.92h90.131a2.447 2.447 45 0 1 2.447 2.447v7.553h-95v-7.58a2.422 2.422 135 0 1 2.422-2.421z" style="fill:#c2c3c7;stroke:#ffec27;stroke-width:0;stroke-dasharray:none" transform="translate(0 -.42)"/></g></svg>